# xmcd
#
# Track frame offsets:
#	150
#	12665
#	25075
#	39715
#	52765
#	64347
#	77755
#	93172
#	106345
#	118952
#	132572
#	145225
#	157390
#	169955
#	181825
#	195927
#	208082
#	220547
#	233815
#	247405
#	260077
#
# Disc length: 3623 seconds
#
# Revision: 2
# Processed by: cddbd v1.5.1PL2 Copyright (c) Steve Scherf et al.
# Submitted via: audiograbber 1.83.01
#
DISCID=390e2515
DTITLE=Gus Cannon and Noah Lewis - Complete Works (Vol 2)
DYEAR=1990
DGENRE=Blues
TTITLE0=Cannon and Woods (The Beale Street Boys) - Last Chance Blues
TTITLE1=Cannon and Woods (The Beale Street Boys) - Fourth And Beale
TTITLE2=Cannon's Jug Stompers - Last Chance Blues
TTITLE3=Cannon's Jug Stompers - Tired Chicken Blues
TTITLE4=Cannon's Jug Stompers - Going To Germany
TTITLE5=Cannon's Jug Stompers - Walk Right In
TTITLE6=Noah Lewis - Chickasaw Special
TTITLE7=Noah Lewis - Devil In The Woodpile
TTITLE8=Cannon's Jug Stompers - Mule Get Up In The Alley
TTITLE9=Cannon's Jug Stompers - The Rooster's Crowing Blues
TTITLE10=Cannon's Jug Stompers - Jonestown Blues
TTITLE11=Cannon's Jug Stompers - Pretty Mama Blues
TTITLE12=Cannon's Jug Stompers - Bring It With You When You Come
TTITLE13=Cannon's Jug Stompers - Wolf River Blues
TTITLE14=Noah Lewis - Like I Want To Be
TTITLE15=Noah Lewis' Jug Band - Ticket Agent Blues
TTITLE16=Noah Lewis' Jug Band - New Minglewood Blues
TTITLE17=Noah Lewis' Jug Band - Selling The Jelly
TTITLE18=Noah Lewis' Jug Band - Bad Luck's My Buddy
TTITLE19=Cannon's Jug Stompers - Money Never Runs Out
TTITLE20=Cannon's Jug Stompers - Prison Wall Blues
EXTD=
EXTT0=
EXTT1=
EXTT2=
EXTT3=
EXTT4=
EXTT5=
EXTT6=
EXTT7=
EXTT8=
EXTT9=
EXTT10=
EXTT11=
EXTT12=
EXTT13=
EXTT14=
EXTT15=
EXTT16=
EXTT17=
EXTT18=
EXTT19=
EXTT20=
PLAYORDER=
